<?xml version="1.0" encoding="utf-8"?>
<!-- Generator: Adobe Illustrator 25.4.1, SVG Export Plug-In . SVG Version: 6.00 Build 0)  -->
<svg version="1.1" xmlns="http://www.w3.org/2000/svg" xmlns:xlink="http://www.w3.org/1999/xlink" x="0px" y="0px"
	 viewBox="0 0 163.19 162.78" style="enable-background:new 0 0 163.19 162.78;" xml:space="preserve">
<style type="text/css">
	.st0{display:none;}
	.st1{fill:#878787;}
	.st2{fill:#DADADA;}
	.st3{display:inline;}
	.st4{fill:none;stroke:#575756;stroke-width:5;stroke-miterlimit:10;}
	.st5{stroke:#EDEDED;stroke-width:5;stroke-miterlimit:10;}
	.st6{fill:#EDEDED;}
	.st7{fill:none;stroke:#000000;stroke-width:5;stroke-miterlimit:10;}
	.st8{fill:#3C3C3B;}
	.st9{fill:#1A1A1A;}
	.st10{fill:#3C3C3B;stroke:#EDEDED;stroke-width:5;stroke-miterlimit:10;}
	.st11{fill:#575756;}
	.st12{display:none;fill:#EDEDED;}
	.st13{fill:#FFFFFF;}
	.st14{fill:none;stroke:#FFFFFF;stroke-width:5;stroke-miterlimit:10;}
	.st15{fill:none;stroke:#3C3C3B;stroke-width:5;stroke-miterlimit:10;}
	.st16{display:inline;fill:none;stroke:#878787;stroke-width:0.5;stroke-miterlimit:10;}
	.st17{display:inline;fill:none;stroke:#878787;stroke-miterlimit:10;}
	.st18{fill:none;stroke:#FFFFFF;stroke-width:7;stroke-miterlimit:10;}
</style>
<g id="Capa_1">
</g>
<g id="Capa_3">
</g>
<g id="Capa_2">
</g>
<g id="Capa_5" class="st0">
</g>
<g id="Capa_6">
</g>
<g id="Capa_7">
</g>
<g id="Capa_13">
</g>
<g id="Capa_11">
</g>
<g id="Capa_8">
</g>
<g id="Capa_9">
</g>
<g id="Capa_4">
</g>
<g id="Capa_10">
</g>
<g id="Capa_12">
</g>
<g id="Capa_14">
	<path class="st8" d="M81.49,1.91C37.77,1.91,2.2,37.48,2.2,81.2c0,43.72,35.57,79.29,79.29,79.29s79.29-35.57,79.29-79.29
		c0-22.95-9.93-44.75-27.26-59.83C119.11,8.82,100.63,1.91,81.49,1.91z"/>
	<path class="st8" d="M81.49,8.97c-39.83,0-72.23,32.4-72.23,72.23c0,39.83,32.4,72.23,72.23,72.23s72.23-32.4,72.23-72.23
		c0-20.9-9.05-40.77-24.83-54.5C115.76,15.27,98.93,8.97,81.49,8.97z"/>
	<g>
		<path class="st13" d="M15.15,122.28c3.29-0.21,5.67-0.68,7.12-1.41c2.57-1.32,3.85-3.74,3.85-7.25V48.79
			c0-3.38-1.22-5.73-3.66-7.06c-1.41-0.77-3.85-1.3-7.32-1.6v-3.34h40.18c16.22,0,28.58,4.32,37.1,12.97
			c7.74,7.87,11.62,18.44,11.62,31.71c0,11.9-3.89,21.97-11.68,30.23c-8.77,9.29-20.67,13.93-35.69,13.93H15.15V122.28z
			 M48.88,119.39c0.88,1.2,2.75,1.8,5.61,1.8c7.79,0,14.18-2.75,19.19-8.25c5.01-5.5,7.51-16.05,7.51-31.67
			c0-9.28-1.35-17.27-4.04-23.94c-4.36-10.74-11.73-16.11-22.08-16.11c-3.42,0-5.65,0.73-6.68,2.18c-0.69,0.94-1.03,2.76-1.03,5.46
			v64.7C47.5,116.25,48,118.19,48.88,119.39z"/>
		<path class="st13" d="M85.97,95.23h3.79c2.09,9.82,5.47,16.96,10.14,21.42c4.66,4.46,10.01,6.69,16.03,6.69
			c5.86,0,10.02-1.53,12.49-4.59c2.47-3.06,3.7-6.28,3.7-9.67c0-3.94-1.29-7.15-3.87-9.64c-1.7-1.63-5.16-3.75-10.36-6.36
			l-8.37-4.24c-8.31-4.2-14.17-8.35-17.59-12.46c-3.42-4.11-5.12-9.18-5.12-15.22c0-6.42,2.26-12.42,6.79-17.98
			c4.52-5.57,11.46-8.35,20.8-8.35c4.75,0,9.35,0.73,13.79,2.18c4.44,1.46,6.97,2.18,7.6,2.18c1.43,0,2.42-0.42,2.97-1.25
			c0.54-0.84,0.99-1.94,1.32-3.31h3.92v28.63h-3.66c-1.71-6.63-4.74-12.34-9.07-17.14c-4.33-4.79-9.59-7.19-15.78-7.19
			c-4.35,0-7.79,1.21-10.32,3.63c-2.53,2.42-3.79,5.36-3.79,8.83c0,4.15,1.18,7.26,3.56,9.31c2.33,2.1,7.54,5.18,15.65,9.25
			l9.7,4.88c4.33,2.18,7.77,4.6,10.35,7.25c4.81,4.96,7.21,10.99,7.21,18.09c0,6.63-2.58,12.88-7.73,18.76
			c-5.16,5.88-13.42,8.82-24.78,8.82c-2.61,0-5.25-0.25-7.93-0.74c-2.67-0.49-6.76-1.77-8.04-2.22s-1.8-0.61-2.52-0.9
			c-0.71-0.29-1.25-0.51-2.05-0.88c-0.52-0.2-3.05-1.67-4-2.23c-1.49-0.89-7.24-5.77-7.75-4.97c-0.5,0.79-0.94,1.92-1.32,3.37h-3.79
			L85.97,95.23z"/>
	</g>
	<path class="st14" d="M81.49,8.97c-39.83,0-72.23,32.4-72.23,72.23c0,39.83,32.4,72.23,72.23,72.23s72.23-32.4,72.23-72.23
		c0-20.9-9.05-40.77-24.83-54.5C115.76,15.27,98.93,8.97,81.49,8.97z"/>
	<path class="st15" d="M81.49,4.28C39.08,4.28,4.57,38.78,4.57,81.2c0,42.42,34.51,76.93,76.93,76.93s76.93-34.51,76.93-76.93
		c0-22.26-9.64-43.42-26.44-58.04C117.99,10.98,100.06,4.28,81.49,4.28z"/>
</g>
<g id="Capa_15">
</g>
<g id="Capa_16">
</g>
<g id="Capa_17">
</g>
<g id="Capa_19" class="st0">
</g>
<g id="Capa_18">
</g>
<g id="Capa_20">
</g>
<g id="Capa_24">
</g>
<g id="Capa_28" class="st0">
</g>
<g id="Capa_21">
</g>
<g id="Capa_29">
</g>
<g id="Capa_30">
</g>
<g id="Capa_23" class="st0">
</g>
<g id="Capa_22" class="st0">
</g>
<g id="Capa_27">
</g>
<g id="Capa_31">
</g>
<g id="Capa_26">
</g>
<g id="Capa_25">
</g>
</svg>
