<?xml version="1.0" encoding="utf-8"?>
<!-- Generator: Adobe Illustrator 25.4.1, SVG Export Plug-In . SVG Version: 6.00 Build 0)  -->
<svg version="1.1" xmlns="http://www.w3.org/2000/svg" xmlns:xlink="http://www.w3.org/1999/xlink" x="0px" y="0px"
	 viewBox="0 0 201.25 201.08" style="enable-background:new 0 0 201.25 201.08;" xml:space="preserve">
<style type="text/css">
	.st0{display:none;}
	.st1{fill:#878787;}
	.st2{fill:#DADADA;}
	.st3{display:inline;}
	.st4{fill:none;stroke:#575756;stroke-width:5;stroke-miterlimit:10;}
	.st5{stroke:#EDEDED;stroke-width:5;stroke-miterlimit:10;}
	.st6{fill:#EDEDED;}
	.st7{fill:none;stroke:#000000;stroke-width:5;stroke-miterlimit:10;}
	.st8{fill:#3C3C3B;}
	.st9{fill:#1A1A1A;}
	.st10{fill:#3C3C3B;stroke:#EDEDED;stroke-width:5;stroke-miterlimit:10;}
	.st11{fill:#575756;}
	.st12{display:none;fill:#EDEDED;}
	.st13{fill:#FFFFFF;}
	.st14{fill:none;stroke:#FFFFFF;stroke-width:5;stroke-miterlimit:10;}
	.st15{fill:none;stroke:#3C3C3B;stroke-width:5;stroke-miterlimit:10;}
	.st16{display:inline;fill:none;stroke:#878787;stroke-width:0.5;stroke-miterlimit:10;}
	.st17{display:inline;fill:none;stroke:#878787;stroke-miterlimit:10;}
	.st18{fill:none;stroke:#FFFFFF;stroke-width:7;stroke-miterlimit:10;}
	.st19{fill:#3D3D3B;}
	.st20{fill:none;}
	.st21{fill:#1B1B1B;}
	.st22{fill:#020203;}
	.st23{fill:none;stroke:#3D3D3B;stroke-width:14;stroke-miterlimit:10;}
	.st24{fill:#3C3C3B;stroke:#FFFFFF;stroke-width:4;stroke-miterlimit:10;}
	.st25{fill:none;stroke:#3D3D3B;stroke-width:30;stroke-miterlimit:10;}
</style>
<g id="Capa_1">
</g>
<g id="Capa_3">
</g>
<g id="Capa_2">
</g>
<g id="Capa_5" class="st0">
</g>
<g id="Capa_6">
</g>
<g id="Capa_7">
</g>
<g id="Capa_13">
</g>
<g id="Capa_11">
</g>
<g id="Capa_8">
</g>
<g id="Capa_9">
</g>
<g id="Capa_4">
</g>
<g id="Capa_10">
</g>
<g id="Capa_12">
</g>
<g id="Capa_14">
</g>
<g id="Capa_15">
</g>
<g id="Capa_16">
</g>
<g id="Capa_17">
</g>
<g id="Capa_19" class="st0">
</g>
<g id="Capa_18">
</g>
<g id="Capa_20">
</g>
<g id="Capa_24">
</g>
<g id="Capa_28" class="st0">
</g>
<g id="Capa_21">
</g>
<g id="Capa_29">
</g>
<g id="Capa_30">
</g>
<g id="Capa_23" class="st0">
</g>
<g id="Capa_22" class="st0">
</g>
<g id="Capa_27">
</g>
<g id="Capa_31">
</g>
<g id="Capa_26">
</g>
<g id="Capa_25">
</g>
<g id="Capa_32">
	<g id="Capa_33_00000062193524058687302450000000257220005510852257_">
	</g>
</g>
<g id="Capa_33" class="st0">
</g>
<g id="Capa_34">
</g>
<g id="Capa_35">
	<circle class="st23" cx="100.76" cy="100.57" r="93.04"/>
	<path class="st19" d="M150,58.04h-18.54v-6.41c0-4.5-3.64-8.14-8.14-8.14H79.17c-4.49,0-8.14,3.64-8.14,8.14v6.41H51.99
		c-7.15,0-12.95,5.8-12.95,12.95v23.26c0,14.92,12.09,27.01,27.01,27.01h25.18v-7.5c0-5.39,4.38-9.77,9.77-9.77s9.77,4.38,9.77,9.77
		v7.5h25.74c14.61,0,26.45-11.84,26.45-26.45V70.99C162.95,63.84,157.15,58.04,150,58.04z M79.03,51.63c0-0.08,0.06-0.14,0.14-0.14
		h44.15c0.08,0,0.14,0.06,0.14,0.14v6.41H79.03V51.63z"/>
	<path class="st19" d="M137.16,126.88h-26.77c-1.17,4.09-4.93,7.1-9.39,7.1s-8.23-3.01-9.39-7.1H65.39
		c-8.9,0-16.77-4.42-21.54-11.18v22.67c0,7.15,5.8,12.95,12.95,12.95h87.93c7.15,0,12.95-5.8,12.95-12.95v-21.65
		C152.97,122.89,145.53,126.88,137.16,126.88z"/>
	<path class="st19" d="M106.77,113.75c0-3.18-2.59-5.77-5.77-5.77s-5.77,2.59-5.77,5.77v10.46c0,3.18,2.59,5.77,5.77,5.77
		s5.77-2.59,5.77-5.77V113.75z"/>
</g>
</svg>
