<?xml version="1.0" encoding="utf-8"?>
<!-- Generator: Adobe Illustrator 25.4.1, SVG Export Plug-In . SVG Version: 6.00 Build 0)  -->
<svg version="1.1" xmlns="http://www.w3.org/2000/svg" xmlns:xlink="http://www.w3.org/1999/xlink" x="0px" y="0px"
	 viewBox="0 0 623.91 623.91" style="enable-background:new 0 0 623.91 623.91;" xml:space="preserve">
<style type="text/css">
	.st0{display:none;}
	.st1{fill:#878787;}
	.st2{fill:#DADADA;}
	.st3{display:inline;}
	.st4{fill:none;stroke:#575756;stroke-width:5;stroke-miterlimit:10;}
	.st5{stroke:#EDEDED;stroke-width:5;stroke-miterlimit:10;}
	.st6{fill:#EDEDED;}
	.st7{fill:none;stroke:#000000;stroke-width:5;stroke-miterlimit:10;}
	.st8{fill:#3C3C3B;}
	.st9{fill:#1A1A1A;}
	.st10{fill:#3C3C3B;stroke:#EDEDED;stroke-width:5;stroke-miterlimit:10;}
	.st11{fill:#575756;}
	.st12{display:none;fill:#EDEDED;}
	.st13{fill:#FFFFFF;}
	.st14{fill:none;stroke:#FFFFFF;stroke-width:5;stroke-miterlimit:10;}
	.st15{fill:none;stroke:#3C3C3B;stroke-width:5;stroke-miterlimit:10;}
	.st16{display:inline;fill:none;stroke:#878787;stroke-width:0.5;stroke-miterlimit:10;}
	.st17{display:inline;fill:none;stroke:#878787;stroke-miterlimit:10;}
	.st18{fill:none;stroke:#FFFFFF;stroke-width:7;stroke-miterlimit:10;}
	.st19{fill:#3D3D3B;}
	.st20{fill:none;}
	.st21{fill:#1B1B1B;}
	.st22{fill:#020203;}
	.st23{fill:none;stroke:#3D3D3B;stroke-width:7;stroke-miterlimit:10;}
	.st24{fill:#3D3D3B;stroke:#3D3D3B;stroke-width:7;stroke-miterlimit:10;}
	.st25{fill:none;stroke:#3D3D3B;stroke-width:14;stroke-miterlimit:10;}
	.st26{fill:#3C3C3B;stroke:#FFFFFF;stroke-width:4;stroke-miterlimit:10;}
	.st27{fill:none;stroke:#3D3D3B;stroke-width:30;stroke-miterlimit:10;}
	.st28{fill:#C6C6C6;}
	.st29{fill:none;stroke:#FFFFFF;stroke-width:20;stroke-linecap:round;stroke-miterlimit:10;}
	.st30{fill:none;stroke:#575756;stroke-width:20;stroke-linecap:round;stroke-miterlimit:10;}
	.st31{fill:none;stroke:#3C3C3B;stroke-miterlimit:10;}
	.st32{fill:none;stroke:#575756;stroke-miterlimit:10;}
	.st33{fill:none;stroke:#575756;stroke-linecap:round;stroke-miterlimit:10;}
	.st34{fill:none;stroke:#3D3D3B;stroke-width:60;stroke-miterlimit:10;}
</style>
<g id="Capa_1">
</g>
<g id="Capa_3">
</g>
<g id="Capa_2">
</g>
<g id="Capa_5" class="st0">
</g>
<g id="Capa_6">
</g>
<g id="Capa_7">
</g>
<g id="Capa_13">
</g>
<g id="Capa_11">
</g>
<g id="Capa_8">
</g>
<g id="Capa_9">
</g>
<g id="Capa_4">
</g>
<g id="Capa_10">
</g>
<g id="Capa_12">
</g>
<g id="Capa_14">
</g>
<g id="Capa_15">
</g>
<g id="Capa_16">
</g>
<g id="Capa_17">
</g>
<g id="Capa_19" class="st0">
</g>
<g id="Capa_18">
</g>
<g id="Capa_20">
</g>
<g id="Capa_24">
</g>
<g id="Capa_28" class="st0">
</g>
<g id="Capa_21">
</g>
<g id="Capa_29">
</g>
<g id="Capa_30">
</g>
<g id="Capa_23" class="st0">
</g>
<g id="Capa_22" class="st0">
</g>
<g id="Capa_27">
</g>
<g id="Capa_31">
</g>
<g id="Capa_26">
</g>
<g id="Capa_25">
</g>
<g id="Capa_32">
	<g id="Capa_33_00000062193524058687302450000000257220005510852257_">
	</g>
</g>
<g id="Capa_33" class="st0">
</g>
<g id="Capa_34">
</g>
<g id="Capa_35">
</g>
<g id="Capa_36">
</g>
<g id="Capa_37">
	<polygon class="st19" points="441.96,242.47 382.98,183.49 312.82,253.65 242.66,183.49 183.68,242.47 253.84,312.63 
		183.68,382.79 242.66,441.77 312.82,371.61 382.98,441.77 441.96,382.79 371.8,312.63 	"/>
	<path class="st19" d="M312.82,621.33c-82.46,0-159.98-32.11-218.28-90.42S4.12,395.08,4.12,312.63S36.23,152.65,94.54,94.35
		S230.36,3.93,312.82,3.93c82.46,0,159.98,32.11,218.28,90.42s90.42,135.83,90.42,218.28s-32.11,159.98-90.42,218.28
		S395.27,621.33,312.82,621.33z M312.82,63.93c-66.43,0-128.88,25.87-175.86,72.84C89.99,183.74,64.12,246.2,64.12,312.63
		s25.87,128.88,72.84,175.86c46.97,46.97,109.43,72.84,175.86,72.84s128.88-25.87,175.86-72.84
		c46.97-46.97,72.84-109.43,72.84-175.86s-25.87-128.88-72.84-175.86C441.7,89.8,379.25,63.93,312.82,63.93z"/>
</g>
</svg>
