<?xml version="1.0" encoding="utf-8"?>
<!-- Generator: Adobe Illustrator 25.4.1, SVG Export Plug-In . SVG Version: 6.00 Build 0)  -->
<svg version="1.1" xmlns="http://www.w3.org/2000/svg" xmlns:xlink="http://www.w3.org/1999/xlink" x="0px" y="0px"
	 viewBox="0 0 270.56 274.23" style="enable-background:new 0 0 270.56 274.23;" xml:space="preserve">
<style type="text/css">
	.st0{display:none;}
	.st1{fill:#878787;}
	.st2{fill:#DADADA;}
	.st3{display:inline;}
	.st4{fill:none;stroke:#575756;stroke-width:5;stroke-miterlimit:10;}
	.st5{stroke:#EDEDED;stroke-width:5;stroke-miterlimit:10;}
	.st6{fill:#EDEDED;}
	.st7{fill:none;stroke:#000000;stroke-width:5;stroke-miterlimit:10;}
	.st8{fill:#3C3C3B;}
	.st9{fill:#1A1A1A;}
	.st10{fill:#3C3C3B;stroke:#EDEDED;stroke-width:5;stroke-miterlimit:10;}
	.st11{fill:#575756;}
	.st12{fill:#FFFFFF;}
	.st13{opacity:0.5;fill:#DBDBDB;}
	.st14{display:none;fill:#EDEDED;}
	.st15{fill:none;stroke:#FFFFFF;stroke-width:5;stroke-miterlimit:10;}
	.st16{fill:none;stroke:#3C3C3B;stroke-width:5;stroke-miterlimit:10;}
	.st17{display:inline;fill:none;stroke:#878787;stroke-width:0.5;stroke-miterlimit:10;}
	.st18{display:inline;fill:none;stroke:#878787;stroke-miterlimit:10;}
	.st19{fill:none;stroke:#FFFFFF;stroke-width:7;stroke-miterlimit:10;}
	.st20{fill:none;}
</style>
<g id="Capa_1">
</g>
<g id="Capa_3">
</g>
<g id="Capa_2">
</g>
<g id="Capa_5" class="st0">
</g>
<g id="Capa_6">
</g>
<g id="Capa_7">
</g>
<g id="Capa_13">
</g>
<g id="Capa_11">
</g>
<g id="Capa_8">
</g>
<g id="Capa_9">
</g>
<g id="Capa_4">
</g>
<g id="Capa_10">
</g>
<g id="Capa_12">
</g>
<g id="Capa_14">
</g>
<g id="Capa_15">
</g>
<g id="Capa_16">
</g>
<g id="Capa_17">
</g>
<g id="Capa_19" class="st0">
</g>
<g id="Capa_18">
</g>
<g id="Capa_20">
</g>
<g id="Capa_24">
</g>
<g id="Capa_28" class="st0">
</g>
<g id="Capa_21">
</g>
<g id="Capa_29">
</g>
<g id="Capa_30">
</g>
<g id="Capa_23" class="st0">
</g>
<g id="Capa_22" class="st0">
</g>
<g id="Capa_27">
</g>
<g id="Capa_31">
</g>
<g id="Capa_26">
</g>
<g id="Capa_32">
</g>
<g id="Capa_25">
</g>
<g id="Capa_33">
	<path class="st8" d="M265.32,241.7l-64.65-64.65c13.46-18.23,21.42-40.77,21.42-65.17c0-60.67-49.18-109.86-109.86-109.86
		S2.38,51.21,2.38,111.88s49.18,109.86,109.86,109.86c22.28,0,43.01-6.64,60.33-18.04l65.38,65.38c6.18,6.18,16.19,6.18,22.37,0
		l5.01-5.01C271.5,257.9,271.5,247.88,265.32,241.7z M34.55,111.88c0-42.9,34.78-77.68,77.68-77.68c42.9,0,77.68,34.78,77.68,77.68
		c0,42.9-34.78,77.68-77.68,77.68C69.33,189.56,34.55,154.79,34.55,111.88z"/>
</g>
</svg>
