<?xml version="1.0" encoding="utf-8"?>
<!-- Generator: Adobe Illustrator 25.4.1, SVG Export Plug-In . SVG Version: 6.00 Build 0)  -->
<svg version="1.1" xmlns="http://www.w3.org/2000/svg" xmlns:xlink="http://www.w3.org/1999/xlink" x="0px" y="0px"
	 viewBox="0 0 332.81 72.37" style="enable-background:new 0 0 332.81 72.37;" xml:space="preserve">
<style type="text/css">
	.st0{display:none;}
	.st1{fill:#878787;}
	.st2{fill:#DADADA;}
	.st3{display:inline;}
	.st4{fill:none;stroke:#575756;stroke-width:5;stroke-miterlimit:10;}
	.st5{stroke:#EDEDED;stroke-width:5;stroke-miterlimit:10;}
	.st6{fill:#EDEDED;}
	.st7{fill:none;stroke:#000000;stroke-width:5;stroke-miterlimit:10;}
	.st8{fill:#3C3C3B;}
	.st9{fill:#1A1A1A;}
	.st10{fill:#3C3C3B;stroke:#EDEDED;stroke-width:5;stroke-miterlimit:10;}
	.st11{fill:#575756;}
	.st12{fill:#FFFFFF;}
	.st13{display:none;fill:#EDEDED;}
	.st14{fill:none;stroke:#FFFFFF;stroke-width:5;stroke-miterlimit:10;}
	.st15{fill:none;stroke:#3C3C3B;stroke-width:5;stroke-miterlimit:10;}
	.st16{display:inline;fill:none;stroke:#878787;stroke-width:0.5;stroke-miterlimit:10;}
	.st17{display:inline;fill:none;stroke:#878787;stroke-miterlimit:10;}
	.st18{fill:none;stroke:#FFFFFF;stroke-width:7;stroke-miterlimit:10;}
	.st19{fill:none;}
</style>
<g id="Capa_1">
</g>
<g id="Capa_3">
</g>
<g id="Capa_2">
</g>
<g id="Capa_5" class="st0">
</g>
<g id="Capa_6">
</g>
<g id="Capa_7">
</g>
<g id="Capa_13">
</g>
<g id="Capa_11">
</g>
<g id="Capa_8">
</g>
<g id="Capa_9">
</g>
<g id="Capa_4">
</g>
<g id="Capa_10">
</g>
<g id="Capa_12">
</g>
<g id="Capa_14">
</g>
<g id="Capa_15">
</g>
<g id="Capa_16">
</g>
<g id="Capa_17">
</g>
<g id="Capa_19" class="st0">
</g>
<g id="Capa_18">
</g>
<g id="Capa_20">
</g>
<g id="Capa_24">
</g>
<g id="Capa_28" class="st0">
</g>
<g id="Capa_21">
</g>
<g id="Capa_29">
</g>
<g id="Capa_30">
</g>
<g id="Capa_23" class="st0">
</g>
<g id="Capa_22" class="st0">
</g>
<g id="Capa_27">
</g>
<g id="Capa_31">
	<g>
		<path class="st12" d="M0,53.61c2.02-0.13,3.47-0.42,4.37-0.87c1.57-0.81,2.36-2.29,2.36-4.44V8.58c0-2.07-0.75-3.51-2.24-4.33
			C3.62,3.78,2.12,3.45,0,3.26V1.22h24.62c9.94,0,17.51,2.65,22.73,7.94c4.74,4.82,7.12,11.3,7.12,19.43
			c0,7.29-2.39,13.46-7.16,18.52c-5.38,5.69-12.67,8.53-21.87,8.53H0V53.61z M20.67,51.84c0.54,0.73,1.68,1.1,3.44,1.1
			c4.77,0,8.69-1.68,11.76-5.05c3.07-3.37,4.6-9.84,4.6-19.41c0-5.69-0.83-10.58-2.48-14.67c-2.67-6.58-7.18-9.87-13.53-9.87
			c-2.1,0-3.46,0.45-4.09,1.34c-0.42,0.58-0.63,1.69-0.63,3.34v39.64C19.82,49.91,20.13,51.1,20.67,51.84z"/>
		<path class="st12" d="M63.78,22.75c3.3-3.42,7.27-5.13,11.91-5.13c2.65,0,5.15,0.7,7.48,2.09c2.34,1.39,4.14,3.32,5.39,5.78
			c0.95,1.86,1.6,4.27,1.97,7.24c0.18,1.39,0.28,2.45,0.28,3.19H70.24c0.18,3.23,0.71,6.02,1.58,8.38c1.58,4.43,4.35,6.65,8.32,6.65
			c1.89,0,3.68-0.59,5.36-1.77c1.02-0.71,2.3-1.9,3.82-3.58l1.85,1.14c-2.49,4.09-5.38,6.94-8.66,8.54
			c-2.13,1.02-4.57,1.53-7.33,1.53c-3.96,0-7.68-1.56-11.14-4.68c-3.47-3.12-5.2-8.1-5.2-14.95C58.84,30.98,60.48,26.17,63.78,22.75
			z M80.9,32.92c-0.05-4.74-0.42-8.06-1.11-9.95c-0.68-1.89-2.05-2.83-4.1-2.83c-2.11,0-3.55,1.09-4.32,3.26
			c-0.78,2.18-1.22,5.35-1.32,9.52H80.9z"/>
		<path class="st12" d="M94.86,43.46h2.24c0.79,3.85,2.26,6.57,4.4,8.16c2.15,1.59,4.35,2.38,6.61,2.38c2.07,0,3.59-0.46,4.56-1.4
			c0.97-0.93,1.46-2.16,1.46-3.68c0-1.44-0.53-2.67-1.57-3.7c-0.58-0.55-1.51-1.14-2.79-1.77l-5.98-2.91
			c-3.15-1.55-5.4-3.23-6.76-5.03c-1.39-1.81-2.09-3.95-2.09-6.41c0-3.12,1.09-5.81,3.26-8.08c2.18-2.27,5.22-3.4,9.12-3.4
			c1.71,0,3.51,0.28,5.43,0.85c1.91,0.56,3.11,0.85,3.58,0.85c0.65,0,1.12-0.14,1.4-0.41c0.27-0.28,0.5-0.66,0.69-1.16h1.77v11.64
			h-2.05c-0.76-2.73-2.01-4.92-3.74-6.57c-1.73-1.65-3.75-2.48-6.06-2.48c-1.78,0-3.11,0.5-3.99,1.49c-0.88,1-1.32,2.07-1.32,3.23
			c0,0.94,0.39,1.89,1.18,2.83c0.76,0.97,2.2,1.97,4.33,2.99l4.4,2.12c2.73,1.31,4.72,2.58,5.98,3.81c2.1,2.1,3.15,4.68,3.15,7.75
			c0,2.99-1.08,5.77-3.24,8.36c-2.16,2.58-5.41,3.87-9.73,3.87c-1.08,0-2.16-0.11-3.24-0.33c-1.09-0.22-2.43-0.61-4.03-1.16
			l-1.38-0.47c-0.5-0.18-0.81-0.29-0.92-0.31c-0.12-0.03-0.27-0.04-0.45-0.04c-0.45,0-0.83,0.18-1.16,0.53
			c-0.33,0.35-0.7,0.95-1.12,1.79h-1.93V43.46z"/>
		<path class="st12" d="M125.46,53.73c1.42-0.24,2.39-0.59,2.91-1.06c0.79-0.71,1.18-1.98,1.18-3.81V25.17
			c0-1.64-0.27-2.76-0.83-3.35c-0.55-0.6-1.64-1.04-3.26-1.33v-1.93h15.46v30.6c0,1.76,0.26,2.88,0.79,3.38
			c0.52,0.5,1.51,0.89,2.95,1.18v1.93h-19.19V53.73z M130.83,1.83c1.22-1.22,2.69-1.83,4.42-1.83c1.7,0,3.17,0.61,4.39,1.83
			c1.22,1.22,1.83,2.69,1.83,4.42s-0.61,3.21-1.83,4.42c-1.22,1.22-2.68,1.83-4.39,1.83c-1.73,0-3.21-0.61-4.42-1.83
			C129.61,9.46,129,7.98,129,6.25S129.61,3.05,130.83,1.83z"/>
		<path class="st12" d="M149.82,61.41c0.96-1.22,2.62-2.01,4.97-2.38v-0.55c-1.57-0.6-2.71-1.22-3.42-1.85
			c-1.26-1.13-1.89-2.63-1.89-4.52c0-2.25,0.99-4.18,2.97-5.78c1.98-1.6,3.91-2.71,5.8-3.34v-0.55c-2.73-1.1-4.93-2.67-6.61-4.72
			c-1.68-2.05-2.52-4.52-2.52-7.43c0-3.67,1.47-6.7,4.4-9.09c2.94-2.39,6.91-3.58,11.92-3.58c1.89,0,3.62,0.18,5.19,0.55
			c1.57,0.37,2.79,0.75,3.66,1.14h10.62v4.29h-6.53c1.05,1.02,1.86,2.22,2.42,3.58c0.56,1.36,0.84,2.85,0.84,4.44
			c0,5.03-2.4,8.48-7.2,10.34c-2.52,1-5.65,1.49-9.4,1.49c-0.81,0-1.34-0.01-1.59-0.04c-0.25-0.03-0.62-0.04-1.12-0.04
			c-0.79,0.13-1.61,0.55-2.48,1.26c-0.89,0.73-1.34,1.61-1.34,2.64c0,0.81,0.22,1.44,0.67,1.89c0.45,0.45,1.06,0.72,1.85,0.83
			c0.39,0.05,1.23,0.1,2.52,0.14c1.29,0.04,2.28,0.06,2.99,0.06l5.23,0.08c2.96,0.05,5.45,0.49,7.47,1.3
			c3.85,1.57,5.78,4.39,5.78,8.46c0,5.24-2.88,8.85-8.65,10.82c-3.04,1.02-6.87,1.53-11.48,1.53c-3.78,0-7.03-0.37-9.75-1.1
			c-4.51-1.23-6.76-3.33-6.76-6.29C148.39,63.82,148.87,62.63,149.82,61.41z M158.12,68.35c1.77,0.95,4.33,1.42,7.69,1.42
			c2.99,0,5.45-0.24,7.39-0.71c3.64-0.89,5.47-2.54,5.47-4.94c0-1.4-0.52-2.44-1.55-3.14c-1.04-0.7-2.92-1.05-5.64-1.05h-13.21
			c-0.84,0.68-1.44,1.26-1.81,1.74c-0.66,0.87-0.98,1.79-0.98,2.76C155.47,66.1,156.35,67.4,158.12,68.35z M160.93,37.48
			c0.79,2.36,2.29,3.54,4.52,3.54c2.02,0,3.41-0.88,4.17-2.66c0.76-1.77,1.14-4.36,1.14-7.77c0-3.62-0.4-6.25-1.2-7.91
			c-0.8-1.65-2.17-2.48-4.11-2.48c-2.12,0-3.54,0.88-4.25,2.65c-0.71,1.77-1.06,4.35-1.06,7.73
			C160.15,33.69,160.41,35.99,160.93,37.48z"/>
		<path class="st12" d="M188.11,53.73c1.47-0.18,2.55-0.58,3.25-1.2c0.69-0.62,1.04-1.84,1.04-3.68V25.17
			c0-1.64-0.28-2.78-0.85-3.41c-0.56-0.63-1.71-1.06-3.44-1.27v-1.93h15.26v5.78c1.29-1.94,2.92-3.55,4.9-4.82
			c1.98-1.27,4.18-1.91,6.59-1.91c3.46,0,6.14,0.89,8.04,2.67c1.9,1.78,2.85,4.92,2.85,9.4v19.47c0,1.81,0.31,2.98,0.92,3.5
			c0.62,0.53,1.64,0.88,3.09,1.06v1.93h-18.92v-1.93c1.44-0.29,2.42-0.68,2.95-1.18c0.52-0.5,0.79-1.63,0.79-3.38V29.66
			c0-1.84-0.18-3.21-0.55-4.13c-0.63-1.65-1.87-2.48-3.74-2.48c-1.39,0-2.67,0.5-3.83,1.51c-1.17,1.01-2.06,2.02-2.69,3.05v21.55
			c0,1.76,0.26,2.88,0.79,3.38c0.52,0.5,1.51,0.89,2.95,1.18v1.93h-19.39V53.73z"/>
		<path class="st12" d="M238.89,39.5c3.49-2.13,8.95-4.27,16.4-6.42v-5.86c0-2.39-0.5-4.15-1.51-5.29c-1.01-1.14-2.8-1.71-5.37-1.71
			c-1.44,0-2.63,0.27-3.56,0.81c-0.93,0.54-1.4,1.21-1.4,2.03c0,0.31,0.05,0.58,0.16,0.79c0.11,0.21,0.26,0.43,0.47,0.67l0.47,0.55
			c0.37,0.45,0.66,0.94,0.89,1.48c0.22,0.54,0.33,1.11,0.33,1.71c0,1.52-0.5,2.69-1.51,3.52c-1.01,0.83-2.18,1.24-3.52,1.24
			c-1.55,0-2.86-0.46-3.95-1.37c-1.09-0.92-1.63-2.24-1.63-3.96c0-3.09,1.46-5.53,4.36-7.34c2.91-1.8,6.49-2.71,10.74-2.71
			c4.56,0,8.38,0.88,11.44,2.64c3.04,1.78,4.56,5.06,4.56,9.83V49.6c0,0.58,0.15,1.07,0.45,1.48c0.3,0.41,0.64,0.61,1,0.61
			c0.31,0,0.6-0.06,0.85-0.18c0.25-0.12,0.64-0.44,1.16-0.96l1.22,1.69c-1.57,1.84-3.32,3.12-5.23,3.86
			c-1.21,0.47-2.48,0.71-3.82,0.71c-2.39,0-4.13-0.7-5.23-2.09c-0.63-0.79-1.09-1.96-1.38-3.51c-2.23,2.23-4.75,3.81-7.55,4.73
			c-1.71,0.58-3.38,0.87-5.03,0.87c-2.2,0-4.26-0.7-6.18-2.11c-1.91-1.4-2.87-3.59-2.87-6.56C233.66,44.5,235.4,41.63,238.89,39.5z
			 M252.93,49.87c0.63-0.47,1.38-1.21,2.24-2.21V35.87c-2.15,0.53-4.04,1.35-5.66,2.48c-2.75,1.92-4.13,4.36-4.13,7.33
			c0,1.76,0.4,3.1,1.2,4c0.8,0.91,1.7,1.36,2.69,1.36C250.58,51.05,251.8,50.66,252.93,49.87z"/>
		<path class="st12" d="M273.18,22.1v-2.24c0.71-0.65,1.59-1.43,2.64-2.32c1.39-1.29,2.7-2.61,3.93-3.97
			c2.44-2.67,4.65-5.55,6.65-8.61h2.05v13.61h7.67v3.54h-7.67v24.23c0,1.13,0.17,2.07,0.51,2.83c0.52,1.18,1.39,1.77,2.6,1.77
			c1.05,0,1.93-0.37,2.64-1.12c0.71-0.75,1.42-1.78,2.12-3.09l1.93,0.94c-0.94,2.2-2.07,4-3.38,5.39c-2.31,2.44-5.12,3.66-8.45,3.66
			c-1.89,0-3.54-0.35-4.95-1.06c-2.72-1.36-4.09-3.84-4.11-7.43V22.1H273.18z"/>
		<path class="st12" d="M305.42,22.75c3.3-3.42,7.27-5.13,11.91-5.13c2.65,0,5.15,0.7,7.48,2.09c2.34,1.39,4.14,3.32,5.39,5.78
			c0.95,1.86,1.6,4.27,1.97,7.24c0.18,1.39,0.28,2.45,0.28,3.19h-20.57c0.18,3.23,0.71,6.02,1.58,8.38
			c1.58,4.43,4.35,6.65,8.32,6.65c1.89,0,3.68-0.59,5.36-1.77c1.02-0.71,2.3-1.9,3.82-3.58l1.85,1.14
			c-2.49,4.09-5.38,6.94-8.66,8.54c-2.13,1.02-4.57,1.53-7.33,1.53c-3.96,0-7.68-1.56-11.14-4.68c-3.47-3.12-5.2-8.1-5.2-14.95
			C300.48,30.98,302.12,26.17,305.42,22.75z M322.54,32.92c-0.05-4.74-0.42-8.06-1.11-9.95c-0.68-1.89-2.05-2.83-4.1-2.83
			c-2.11,0-3.55,1.09-4.32,3.26c-0.78,2.18-1.22,5.35-1.32,9.52H322.54z"/>
	</g>
</g>
<g id="Capa_26">
</g>
<g id="Capa_32">
</g>
<g id="Capa_25">
</g>
</svg>
