<?xml version="1.0" encoding="utf-8"?>
<!-- Generator: Adobe Illustrator 25.4.1, SVG Export Plug-In . SVG Version: 6.00 Build 0)  -->
<svg version="1.1" xmlns="http://www.w3.org/2000/svg" xmlns:xlink="http://www.w3.org/1999/xlink" x="0px" y="0px"
	 viewBox="0 0 375.56 46.41" style="enable-background:new 0 0 375.56 46.41;" xml:space="preserve">
<style type="text/css">
	.st0{display:none;}
	.st1{fill:#878787;}
	.st2{fill:#DADADA;}
	.st3{display:inline;}
	.st4{fill:none;stroke:#575756;stroke-width:5;stroke-miterlimit:10;}
	.st5{stroke:#EDEDED;stroke-width:5;stroke-miterlimit:10;}
	.st6{fill:#EDEDED;}
	.st7{fill:none;stroke:#000000;stroke-width:5;stroke-miterlimit:10;}
	.st8{fill:#3C3C3B;}
	.st9{fill:#1A1A1A;}
	.st10{fill:#3C3C3B;stroke:#EDEDED;stroke-width:5;stroke-miterlimit:10;}
	.st11{fill:#575756;}
	.st12{fill:#FFFFFF;}
	.st13{display:none;fill:#EDEDED;}
	.st14{fill:none;stroke:#FFFFFF;stroke-width:5;stroke-miterlimit:10;}
	.st15{fill:none;stroke:#3C3C3B;stroke-width:5;stroke-miterlimit:10;}
	.st16{display:inline;fill:none;stroke:#878787;stroke-width:0.5;stroke-miterlimit:10;}
	.st17{display:inline;fill:none;stroke:#878787;stroke-miterlimit:10;}
	.st18{fill:none;stroke:#FFFFFF;stroke-width:7;stroke-miterlimit:10;}
	.st19{fill:none;}
</style>
<g id="Capa_1">
</g>
<g id="Capa_3">
</g>
<g id="Capa_2">
</g>
<g id="Capa_5" class="st0">
</g>
<g id="Capa_6">
</g>
<g id="Capa_7">
</g>
<g id="Capa_13">
</g>
<g id="Capa_11">
</g>
<g id="Capa_8">
</g>
<g id="Capa_9">
</g>
<g id="Capa_4">
</g>
<g id="Capa_10">
	<g>
		<path class="st12" d="M0.04,43.46c1.63-0.11,2.8-0.34,3.52-0.7c1.27-0.66,1.9-1.85,1.9-3.59V7.12c0-1.67-0.6-2.84-1.81-3.49
			c-0.7-0.38-1.9-0.64-3.62-0.79V1.18h19.87c8.02,0,14.13,2.14,18.34,6.41C42.09,11.49,44,16.71,44,23.27
			c0,5.88-1.92,10.87-5.78,14.95c-4.34,4.59-10.22,6.89-17.65,6.89H0.04V43.46z M16.72,42.03c0.43,0.59,1.36,0.89,2.78,0.89
			c3.85,0,7.01-1.36,9.49-4.08c2.48-2.72,3.71-7.94,3.71-15.66c0-4.59-0.67-8.54-2-11.84c-2.16-5.31-5.8-7.97-10.92-7.97
			c-1.69,0-2.79,0.36-3.3,1.08c-0.34,0.46-0.51,1.36-0.51,2.7v31.99C16.04,40.47,16.29,41.44,16.72,42.03z"/>
		<path class="st12" d="M47.14,45.11v-1.65c1.86-0.06,3.18-0.32,3.97-0.76c1.21-0.68,1.81-1.95,1.81-3.81V7.4
			c0-1.89-0.62-3.16-1.87-3.81c-0.72-0.4-2.02-0.65-3.9-0.76V1.18h37.45v13.11h-1.59c-0.83-4.19-2.23-7.06-4.21-8.6
			C76.82,4.15,73.22,3.37,68,3.37c-1.99,0-3.25,0.21-3.79,0.62c-0.54,0.41-0.81,1.23-0.81,2.46V21.5c3.7,0.04,6.21-0.63,7.52-2.02
			c1.31-1.39,2.32-3.92,3.01-7.6h1.65v21.96h-1.65c-0.46-3.7-1.41-6.31-2.84-7.82c-1.43-1.51-3.99-2.27-7.7-2.27v15.74
			c0,1.38,0.35,2.31,1.06,2.81s2.16,0.75,4.36,0.75c4.15,0,7.53-0.8,10.16-2.41c2.62-1.61,4.95-4.62,6.98-9.05h1.81l-2.63,13.52
			H47.14z"/>
		<path class="st12" d="M91.74,29.94h1.87c1.03,4.86,2.7,8.39,5.01,10.59c2.31,2.21,4.95,3.31,7.93,3.31c2.9,0,4.95-0.76,6.18-2.27
			c1.22-1.51,1.83-3.11,1.83-4.78c0-1.95-0.64-3.54-1.91-4.76c-0.84-0.8-2.55-1.85-5.12-3.14l-4.14-2.1
			c-4.11-2.07-7.01-4.13-8.7-6.16c-1.69-2.03-2.53-4.54-2.53-7.53c0-3.18,1.12-6.14,3.36-8.89c2.24-2.75,5.67-4.13,10.28-4.13
			c2.35,0,4.62,0.36,6.82,1.08c2.19,0.72,3.45,1.08,3.76,1.08c0.71,0,1.2-0.21,1.47-0.62c0.27-0.41,0.49-0.96,0.66-1.63h1.94v14.16
			h-1.81c-0.85-3.28-2.34-6.1-4.48-8.47c-2.14-2.37-4.74-3.55-7.8-3.55c-2.15,0-3.85,0.6-5.1,1.79c-1.25,1.2-1.88,2.65-1.88,4.37
			c0,2.05,0.59,3.59,1.76,4.61c1.15,1.04,3.73,2.56,7.74,4.57l4.8,2.41c2.14,1.08,3.84,2.28,5.12,3.59
			c2.38,2.45,3.57,5.43,3.57,8.94c0,3.28-1.28,6.37-3.82,9.28c-2.55,2.91-6.63,4.36-12.25,4.36c-1.29,0-2.6-0.12-3.92-0.36
			c-1.32-0.24-2.63-0.62-3.92-1.13l-1.25-0.48c-0.29-0.08-0.57-0.15-0.84-0.21c-0.27-0.05-0.5-0.08-0.69-0.08
			c-0.67,0-1.12,0.2-1.37,0.59c-0.25,0.39-0.47,0.95-0.66,1.67h-1.87V29.94z"/>
		<path class="st12" d="M126.65,43.46c1.84-0.04,3.16-0.26,3.97-0.67c1.31-0.68,1.97-1.98,1.97-3.9V7.4c0-1.91-0.62-3.19-1.87-3.85
			c-0.76-0.4-2.12-0.64-4.06-0.72V1.18h22.72v1.65c-2.03,0.08-3.43,0.32-4.19,0.69c-1.27,0.65-1.9,1.94-1.9,3.88v31.48
			c0,1.82,0.51,3.04,1.52,3.65c1.02,0.61,2.54,0.92,4.57,0.92v1.65h-22.72V43.46z"/>
		<path class="st12" d="M159.53,7.18c4.32-4.55,9.83-6.82,16.54-6.82c2.69,0,5.36,0.5,8.03,1.51s4.33,1.51,4.98,1.51
			c0.7,0,1.26-0.24,1.68-0.73c0.42-0.49,0.77-1.23,1.05-2.22h1.81v15.2h-1.65c-1.57-3.3-3.16-5.9-4.79-7.81
			c-3.05-3.51-6.5-5.27-10.35-5.27c-4.19,0-7.25,1.82-9.17,5.46c-1.93,3.64-2.89,8.76-2.89,15.36c0,5.42,0.89,10.25,2.68,14.49
			c1.79,4.24,5.24,6.36,10.36,6.36c2.77,0,4.63-0.58,5.59-1.75c0.55-0.66,0.83-1.65,0.83-2.98v-6.86c0-1.97-0.6-3.26-1.81-3.87
			c-0.78-0.38-2.37-0.59-4.76-0.63v-1.65h22.28v1.65c-2.24,0.08-3.73,0.54-4.46,1.35c-0.73,0.81-1.09,2.34-1.09,4.59v8.28
			c-1.44,0.89-3.77,1.78-6.98,2.67c-3.22,0.89-6.81,1.33-10.79,1.33c-7.22,0-12.98-2.27-17.3-6.82c-4.02-4.25-6.03-9.58-6.03-16
			C153.28,17.05,155.36,11.6,159.53,7.18z"/>
		<path class="st12" d="M202.5,43.46c2.41-0.06,3.97-0.52,4.67-1.38c0.7-0.86,1.05-2.12,1.05-3.79V7.5
			c-1.99-2.22-3.22-3.53-3.68-3.92c-0.46-0.39-1.1-0.64-1.9-0.75V1.18h13.78l22.34,27.16h0.32V9.24c0-2.2-0.4-3.77-1.2-4.71
			s-2.4-1.51-4.8-1.7V1.18h13.96v1.65c-2.03,0.34-3.39,0.79-4.08,1.36c-0.69,0.57-1.03,1.84-1.03,3.82v38.31h-1.81l-28.6-34.75
			h-0.44v25.49c0,2,0.27,3.41,0.82,4.24c0.87,1.34,2.65,2.06,5.33,2.17v1.65H202.5V43.46z"/>
		<path class="st12" d="M249.57,43.46c1.57-0.11,2.83-0.81,3.78-2.13c0.61-0.82,1.49-2.64,2.63-5.46l14.44-35.58h1.81l14.5,34.15
			c1.63,3.83,2.85,6.3,3.65,7.41c0.8,1.11,1.95,1.65,3.43,1.6v1.65h-21.04v-1.65c2.12-0.08,3.51-0.26,4.17-0.54
			c0.67-0.28,1-0.97,1-2.1c0-0.51-0.17-1.28-0.51-2.32c-0.21-0.61-0.5-1.35-0.86-2.22l-1.65-3.94h-14.59
			c-0.95,2.58-1.57,4.26-1.84,5.05c-0.57,1.67-0.86,2.89-0.86,3.65c0,0.93,0.62,1.61,1.87,2.03c0.74,0.23,1.85,0.36,3.33,0.38v1.65
			h-13.27V43.46z M273.97,29.78l-6.25-15.04h-0.54l-5.87,15.04H273.97z"/>
		<path class="st12" d="M292.26,1.18h39.13l0.06,13.11h-1.87c-0.61-4.69-2.37-7.86-5.27-9.52c-1.63-0.91-4.06-1.41-7.3-1.5v34.24
			c0,2.39,0.42,3.98,1.25,4.76c0.83,0.78,2.58,1.18,5.22,1.18v1.65h-23.17v-1.65c2.54,0,4.23-0.4,5.06-1.19
			c0.83-0.79,1.25-2.38,1.25-4.75V3.28c-3.17,0.08-5.61,0.58-7.3,1.5c-3.11,1.7-4.87,4.87-5.27,9.52h-1.87L292.26,1.18z"/>
		<path class="st12" d="M334.95,45.11v-1.65c1.86-0.06,3.18-0.32,3.97-0.76c1.21-0.68,1.81-1.95,1.81-3.81V7.4
			c0-1.89-0.62-3.16-1.87-3.81c-0.72-0.4-2.02-0.65-3.9-0.76V1.18h37.45v13.11h-1.59c-0.83-4.19-2.23-7.06-4.21-8.6
			c-1.98-1.54-5.58-2.32-10.81-2.32c-1.99,0-3.25,0.21-3.79,0.62c-0.54,0.41-0.81,1.23-0.81,2.46V21.5c3.7,0.04,6.21-0.63,7.52-2.02
			c1.31-1.39,2.32-3.92,3.01-7.6h1.65v21.96h-1.65c-0.46-3.7-1.41-6.31-2.84-7.82c-1.43-1.51-3.99-2.27-7.7-2.27v15.74
			c0,1.38,0.35,2.31,1.06,2.81s2.16,0.75,4.36,0.75c4.15,0,7.53-0.8,10.16-2.41c2.62-1.61,4.95-4.62,6.98-9.05h1.81l-2.63,13.52
			H334.95z"/>
	</g>
</g>
<g id="Capa_12">
</g>
<g id="Capa_14">
</g>
<g id="Capa_15">
</g>
<g id="Capa_16">
</g>
<g id="Capa_17">
</g>
<g id="Capa_19" class="st0">
</g>
<g id="Capa_18">
</g>
<g id="Capa_20">
</g>
<g id="Capa_24">
</g>
<g id="Capa_28" class="st0">
</g>
<g id="Capa_21">
</g>
<g id="Capa_29">
</g>
<g id="Capa_30">
</g>
<g id="Capa_23" class="st0">
</g>
<g id="Capa_22" class="st0">
</g>
<g id="Capa_27">
</g>
<g id="Capa_31">
</g>
<g id="Capa_26">
</g>
<g id="Capa_32">
</g>
<g id="Capa_25">
</g>
</svg>
