<?xml version="1.0" encoding="utf-8"?>
<!-- Generator: Adobe Illustrator 25.4.1, SVG Export Plug-In . SVG Version: 6.00 Build 0)  -->
<svg version="1.1" xmlns="http://www.w3.org/2000/svg" xmlns:xlink="http://www.w3.org/1999/xlink" x="0px" y="0px"
	 viewBox="0 0 299.97 78.15" style="enable-background:new 0 0 299.97 78.15;" xml:space="preserve">
<style type="text/css">
	.st0{display:none;}
	.st1{fill:#878787;}
	.st2{fill:#DADADA;}
	.st3{display:inline;}
	.st4{fill:none;stroke:#575756;stroke-width:5;stroke-miterlimit:10;}
	.st5{stroke:#EDEDED;stroke-width:5;stroke-miterlimit:10;}
	.st6{fill:#EDEDED;}
	.st7{fill:none;stroke:#000000;stroke-width:5;stroke-miterlimit:10;}
	.st8{fill:#3C3C3B;}
	.st9{fill:#1A1A1A;}
	.st10{fill:#3C3C3B;stroke:#EDEDED;stroke-width:5;stroke-miterlimit:10;}
	.st11{fill:#575756;}
	.st12{display:none;fill:#EDEDED;}
	.st13{fill:#FFFFFF;}
	.st14{fill:none;stroke:#FFFFFF;stroke-width:5;stroke-miterlimit:10;}
	.st15{fill:none;stroke:#3C3C3B;stroke-width:5;stroke-miterlimit:10;}
</style>
<g id="Capa_1">
</g>
<g id="Capa_3">
</g>
<g id="Capa_2">
</g>
<g id="Capa_5" class="st0">
</g>
<g id="Capa_6">
</g>
<g id="Capa_7">
</g>
<g id="Capa_13">
</g>
<g id="Capa_11">
</g>
<g id="Capa_8">
</g>
<g id="Capa_9">
</g>
<g id="Capa_4">
</g>
<g id="Capa_10">
</g>
<g id="Capa_12">
</g>
<g id="Capa_14">
</g>
<g id="Capa_15">
</g>
<g id="Capa_16">
</g>
<g id="Capa_17">
</g>
<g id="Capa_18">
	<g>
		<path class="st6" d="M3.98,46.58c1.63-0.11,2.8-0.34,3.52-0.7c1.27-0.66,1.9-1.85,1.9-3.59V10.24c0-1.67-0.6-2.84-1.81-3.49
			c-0.7-0.38-1.9-0.64-3.62-0.79V4.31h19.87c8.02,0,14.13,2.14,18.34,6.41c3.83,3.89,5.74,9.12,5.74,15.68
			c0,5.88-1.92,10.87-5.78,14.95c-4.34,4.59-10.22,6.89-17.65,6.89H3.98V46.58z M20.66,45.16c0.43,0.59,1.36,0.89,2.78,0.89
			c3.85,0,7.01-1.36,9.49-4.08c2.48-2.72,3.71-7.94,3.71-15.66c0-4.59-0.67-8.54-2-11.84c-2.16-5.31-5.8-7.97-10.92-7.97
			c-1.69,0-2.79,0.36-3.3,1.08c-0.34,0.46-0.51,1.36-0.51,2.7v31.99C19.97,43.6,20.22,44.56,20.66,45.16z"/>
		<path class="st6" d="M58.52,21.69c2.66-2.76,5.86-4.14,9.61-4.14c2.14,0,4.15,0.56,6.04,1.68c1.89,1.12,3.34,2.68,4.35,4.67
			c0.76,1.5,1.29,3.45,1.59,5.84c0.15,1.12,0.22,1.98,0.22,2.57h-16.6c0.15,2.6,0.57,4.86,1.27,6.76c1.27,3.58,3.51,5.36,6.71,5.36
			c1.53,0,2.97-0.48,4.33-1.43c0.83-0.57,1.86-1.53,3.08-2.89l1.49,0.92c-2.01,3.3-4.34,5.6-6.99,6.89
			c-1.72,0.83-3.69,1.24-5.91,1.24c-3.2,0-6.2-1.26-8.99-3.78c-2.8-2.52-4.2-6.54-4.2-12.06C54.53,28.32,55.86,24.45,58.52,21.69z
			 M72.33,29.89c-0.04-3.83-0.34-6.51-0.89-8.03c-0.55-1.52-1.66-2.29-3.31-2.29c-1.7,0-2.86,0.88-3.49,2.63
			c-0.63,1.76-0.98,4.32-1.07,7.68H72.33z"/>
		<path class="st6" d="M86.67,38.4h1.81c0.63,3.11,1.82,5.31,3.55,6.59c1.74,1.28,3.51,1.92,5.33,1.92c1.67,0,2.9-0.38,3.68-1.13
			c0.78-0.75,1.17-1.74,1.17-2.97c0-1.16-0.42-2.16-1.27-2.98c-0.47-0.45-1.22-0.92-2.25-1.43l-4.82-2.35
			c-2.54-1.25-4.36-2.6-5.46-4.06c-1.12-1.46-1.68-3.18-1.68-5.17c0-2.52,0.88-4.69,2.63-6.52c1.76-1.83,4.21-2.75,7.36-2.75
			c1.38,0,2.84,0.23,4.38,0.68c1.54,0.46,2.51,0.68,2.89,0.68c0.53,0,0.9-0.11,1.13-0.33c0.22-0.22,0.41-0.53,0.56-0.94h1.43v9.39
			h-1.65c-0.61-2.2-1.62-3.97-3.02-5.3c-1.4-1.33-3.03-2-4.89-2c-1.44,0-2.51,0.4-3.22,1.21c-0.71,0.8-1.06,1.67-1.06,2.6
			c0,0.76,0.32,1.52,0.95,2.29c0.61,0.78,1.78,1.59,3.49,2.41l3.55,1.71c2.2,1.06,3.81,2.08,4.82,3.08
			c1.69,1.69,2.54,3.78,2.54,6.25c0,2.41-0.87,4.66-2.62,6.74c-1.75,2.08-4.36,3.13-7.86,3.13c-0.87,0-1.74-0.09-2.62-0.27
			c-0.88-0.18-1.96-0.49-3.25-0.94l-1.11-0.38c-0.4-0.15-0.65-0.23-0.75-0.25c-0.09-0.02-0.22-0.03-0.36-0.03
			c-0.36,0-0.67,0.14-0.94,0.43c-0.26,0.29-0.57,0.77-0.91,1.44h-1.55V38.4z"/>
		<path class="st6" d="M114.44,46.68c1.14-0.19,1.93-0.48,2.35-0.86c0.63-0.57,0.95-1.6,0.95-3.08V23.64c0-1.32-0.22-2.22-0.67-2.7
			c-0.44-0.48-1.32-0.84-2.63-1.07v-1.56h12.47V43c0,1.42,0.21,2.33,0.63,2.73c0.42,0.4,1.22,0.72,2.38,0.95v1.55h-15.49V46.68z
			 M118.77,4.8c0.98-0.98,2.17-1.48,3.57-1.48c1.38,0,2.55,0.49,3.54,1.48c0.98,0.98,1.48,2.17,1.48,3.57s-0.49,2.59-1.48,3.57
			c-0.98,0.98-2.16,1.48-3.54,1.48c-1.4,0-2.59-0.49-3.57-1.48c-0.98-0.98-1.48-2.17-1.48-3.57S117.79,5.78,118.77,4.8z"/>
		<path class="st6" d="M134.7,60.9c0.91-1.28,2.49-2.11,4.74-2.49v-0.58c-1.5-0.63-2.59-1.28-3.26-1.94c-1.2-1.18-1.8-2.76-1.8-4.74
			c0-2.36,0.94-5.99,2.83-7.66c1.89-1.68,3.73-2.84,5.53-3.5v-0.58c-2.6-1.15-4.7-2.8-6.3-4.94c-1.6-2.14-2.4-4.74-2.4-7.79
			c0-3.85,1.4-7.02,4.2-9.52c2.8-2.5,6.59-3.75,11.36-3.75c1.8,0,3.45,0.19,4.95,0.58c1.5,0.38,2.66,0.78,3.49,1.19h10.13v4.49
			h-6.23c1,1.07,1.77,2.32,2.31,3.75c0.54,1.43,0.81,2.98,0.81,4.65c0,5.27-2.29,8.89-6.86,10.83c-2.4,1.04-5.39,1.57-8.96,1.57
			c-0.78,0-1.28-0.01-1.52-0.04c-0.24-0.03-0.59-0.04-1.07-0.04c-0.75,0.14-1.54,0.58-2.36,1.32c-0.85,0.77-1.35,1.45-1.76,2.42
			c-0.39,0.93,0,2.89,1.12,3.93c0.46,0.42,1.01,0.76,1.76,0.86c0.38,0.06,1.18,0.1,2.4,0.14c1.23,0.04,2.18,0.06,2.85,0.06
			l4.99,0.08c2.82,0.05,5.2,0.51,7.13,1.36c3.68,1.65,5.51,4.6,5.51,8.86c0,5.49-2.75,9.27-8.25,11.33
			c-2.9,1.07-6.55,1.61-10.95,1.61c-3.6,0-6.7-0.38-9.3-1.15c-4.3-1.29-6.45-3.49-6.45-6.59C133.33,63.42,133.78,62.17,134.7,60.9z
			 M142.61,68.16c1.69,0.99,4.13,1.49,7.33,1.49c2.85,0,5.2-0.25,7.05-0.75c3.47-0.94,5.21-2.66,5.21-5.17
			c0-1.46-0.49-2.56-1.48-3.29c-0.99-0.73-2.78-1.1-5.38-1.1h-12.6c-0.8,0.72-1.38,1.32-1.73,1.82c-0.63,0.91-0.94,1.87-0.94,2.89
			C140.08,65.81,140.92,67.17,142.61,68.16z M145.29,34.22c0.75,2.47,2.19,3.71,4.31,3.71c1.93,0,3.25-0.93,3.98-2.78
			c0.72-1.85,1.09-4.57,1.09-8.13c0-3.79-0.38-6.55-1.14-8.28c-0.76-1.73-2.07-2.59-3.92-2.59c-2.02,0-3.37,0.93-4.05,2.78
			c-0.67,1.85-1.01,4.55-1.01,8.1C144.54,30.25,144.79,32.66,145.29,34.22z"/>
		<path class="st6" d="M171.14,46.68c1.19-0.15,2.06-0.47,2.62-0.97c0.56-0.5,0.84-1.49,0.84-2.97V23.64c0-1.32-0.23-2.24-0.68-2.75
			s-1.38-0.85-2.78-1.02v-1.56h12.31v4.67c1.04-1.57,2.35-2.86,3.95-3.89c1.6-1.03,3.37-1.54,5.32-1.54c2.79,0,4.96,0.72,6.49,2.16
			c1.53,1.44,2.3,3.97,2.3,7.59V43c0,1.46,0.25,2.4,0.75,2.82c0.5,0.42,1.33,0.71,2.49,0.86v1.55h-15.27v-1.55
			c1.16-0.23,1.96-0.55,2.38-0.95c0.42-0.4,0.63-1.31,0.63-2.73V27.26c0-1.48-0.15-2.59-0.44-3.33c-0.51-1.33-1.51-2-3.02-2
			c-1.12,0-2.15,0.41-3.09,1.22c-0.94,0.81-1.67,1.63-2.17,2.46V43c0,1.42,0.21,2.33,0.63,2.73c0.42,0.4,1.22,0.72,2.38,0.95v1.55
			h-15.65V46.68z"/>
		<path class="st6" d="M215.19,35.2c2.81-1.72,7.23-3.44,13.24-5.18v-4.73c0-1.92-0.41-3.35-1.22-4.27
			c-0.82-0.92-2.26-1.38-4.33-1.38c-1.16,0-2.12,0.22-2.87,0.65s-1.13,0.98-1.13,1.63c0,0.25,0.04,0.46,0.13,0.63
			c0.08,0.17,0.21,0.35,0.38,0.54l0.38,0.44c0.3,0.36,0.53,0.76,0.71,1.19c0.18,0.43,0.27,0.89,0.27,1.38
			c0,1.23-0.41,2.17-1.22,2.84c-0.82,0.67-1.76,1-2.84,1c-1.25,0-2.31-0.37-3.19-1.11c-0.88-0.74-1.32-1.8-1.32-3.2
			c0-2.49,1.17-4.46,3.52-5.92c2.35-1.46,5.24-2.18,8.67-2.18c3.68,0,6.76,0.71,9.24,2.13c2.46,1.44,3.68,4.08,3.68,7.93v15.74
			c0,0.47,0.12,0.86,0.37,1.19s0.51,0.49,0.81,0.49c0.25,0,0.48-0.05,0.68-0.14c0.2-0.09,0.51-0.35,0.94-0.78l0.98,1.36
			c-1.27,1.48-2.68,2.52-4.22,3.11c-0.97,0.38-2,0.57-3.08,0.57c-1.93,0-3.33-0.56-4.22-1.68c-0.51-0.64-0.88-1.58-1.11-2.83
			c-1.8,1.8-3.83,3.07-6.09,3.82c-1.38,0.47-2.73,0.7-4.06,0.7c-1.78,0-3.44-0.57-4.98-1.7c-1.54-1.13-2.32-2.9-2.32-5.29
			C210.97,39.24,212.38,36.92,215.19,35.2z M226.52,43.57c0.51-0.38,1.11-0.98,1.81-1.78v-9.51c-1.74,0.42-3.26,1.09-4.57,2
			c-2.22,1.55-3.33,3.52-3.33,5.92c0,1.42,0.32,2.5,0.97,3.23c0.65,0.73,1.37,1.1,2.17,1.1C224.63,44.52,225.61,44.2,226.52,43.57z"
			/>
		<path class="st6" d="M245.94,21.16v-1.81c0.57-0.53,1.28-1.15,2.13-1.87c1.12-1.04,2.18-2.11,3.17-3.21
			c1.97-2.16,3.76-4.48,5.36-6.95h1.65v10.98h6.19v2.86h-6.19v19.55c0,0.91,0.14,1.67,0.41,2.29c0.42,0.95,1.12,1.43,2.09,1.43
			c0.85,0,1.55-0.3,2.13-0.9c0.57-0.6,1.14-1.43,1.71-2.49l1.56,0.76c-0.76,1.78-1.67,3.23-2.73,4.35
			c-1.86,1.97-4.13,2.95-6.82,2.95c-1.52,0-2.85-0.29-4-0.86c-2.2-1.1-3.3-3.1-3.31-6V21.16H245.94z"/>
		<path class="st6" d="M275.02,21.69c2.66-2.76,5.86-4.14,9.61-4.14c2.14,0,4.15,0.56,6.04,1.68c1.89,1.12,3.34,2.68,4.35,4.67
			c0.76,1.5,1.29,3.45,1.59,5.84c0.15,1.12,0.22,1.98,0.22,2.57h-16.6c0.15,2.6,0.57,4.86,1.27,6.76c1.27,3.58,3.51,5.36,6.71,5.36
			c1.53,0,2.97-0.48,4.33-1.43c0.83-0.57,1.86-1.53,3.08-2.89l1.49,0.92c-2.01,3.3-4.34,5.6-6.99,6.89
			c-1.72,0.83-3.69,1.24-5.91,1.24c-3.2,0-6.2-1.26-8.99-3.78c-2.8-2.52-4.2-6.54-4.2-12.06C271.04,28.32,272.36,24.45,275.02,21.69
			z M288.84,29.89c-0.04-3.83-0.34-6.51-0.89-8.03c-0.55-1.52-1.66-2.29-3.31-2.29c-1.7,0-2.86,0.88-3.49,2.63
			c-0.63,1.76-0.98,4.32-1.07,7.68H288.84z"/>
	</g>
	<g class="st0">
		<g class="st3">
			<path class="st8" d="M54.53,68.36c0.63-0.04,1.08-0.13,1.36-0.27c0.49-0.25,0.73-0.71,0.73-1.38V54.39c0-0.64-0.23-1.09-0.7-1.34
				c-0.27-0.15-0.73-0.25-1.39-0.3V52.1h7.64c3.08,0,5.44,0.82,7.06,2.47c1.47,1.5,2.21,3.51,2.21,6.03c0,2.26-0.74,4.18-2.22,5.75
				C67.55,68.11,65.28,69,62.43,69h-7.9V68.36z M60.94,67.81c0.17,0.23,0.52,0.34,1.07,0.34c1.48,0,2.7-0.52,3.65-1.57
				c0.95-1.04,1.43-3.05,1.43-6.02c0-1.77-0.26-3.28-0.77-4.55c-0.83-2.04-2.23-3.06-4.2-3.06c-0.65,0-1.07,0.14-1.27,0.42
				c-0.13,0.18-0.2,0.52-0.2,1.04v12.3C60.68,67.21,60.78,67.59,60.94,67.81z"/>
			<path class="st8" d="M76.39,68.4c0.44-0.07,0.74-0.18,0.9-0.33c0.24-0.22,0.37-0.61,0.37-1.18v-7.35c0-0.51-0.08-0.86-0.26-1.04
				s-0.51-0.32-1.01-0.41v-0.6h4.8v9.5c0,0.54,0.08,0.89,0.24,1.05c0.16,0.16,0.47,0.28,0.92,0.37V69h-5.96V68.4z M78.06,52.29
				c0.38-0.38,0.84-0.57,1.37-0.57c0.53,0,0.98,0.19,1.36,0.57c0.38,0.38,0.57,0.84,0.57,1.37s-0.19,1-0.57,1.37
				c-0.38,0.38-0.83,0.57-1.36,0.57c-0.54,0-1-0.19-1.37-0.57c-0.38-0.38-0.57-0.84-0.57-1.37S77.68,52.67,78.06,52.29z"/>
			<path class="st8" d="M88.77,58.79c1.02-1.06,2.25-1.59,3.7-1.59c0.82,0,1.6,0.22,2.32,0.65s1.28,1.03,1.67,1.79
				c0.29,0.58,0.5,1.33,0.61,2.25c0.06,0.43,0.09,0.76,0.09,0.99h-6.38c0.06,1,0.22,1.87,0.49,2.6c0.49,1.38,1.35,2.06,2.58,2.06
				c0.59,0,1.14-0.18,1.66-0.55c0.32-0.22,0.71-0.59,1.19-1.11l0.57,0.35c-0.77,1.27-1.67,2.15-2.69,2.65
				c-0.66,0.32-1.42,0.48-2.27,0.48c-1.23,0-2.38-0.48-3.46-1.45c-1.08-0.97-1.61-2.51-1.61-4.64
				C87.24,61.34,87.75,59.85,88.77,58.79z M94.08,61.94c-0.02-1.47-0.13-2.5-0.34-3.09c-0.21-0.59-0.64-0.88-1.27-0.88
				c-0.65,0-1.1,0.34-1.34,1.01s-0.38,1.66-0.41,2.95H94.08z"/>
			<path class="st8" d="M102.55,70.79c0.3-0.38,0.81-0.62,1.54-0.74v-0.17c-0.49-0.19-0.84-0.38-1.06-0.57
				c-0.39-0.35-0.59-0.82-0.59-1.4c0-0.7,0.31-1.3,0.92-1.79c0.61-0.5,1.21-0.84,1.8-1.04V64.9c-0.85-0.34-1.53-0.83-2.05-1.46
				c-0.52-0.63-0.78-1.4-0.78-2.31c0-1.14,0.46-2.08,1.37-2.82s2.14-1.11,3.7-1.11c0.59,0,1.12,0.06,1.61,0.17
				c0.49,0.11,0.87,0.23,1.14,0.35h3.3v1.33h-2.03c0.33,0.32,0.58,0.69,0.75,1.11c0.17,0.42,0.26,0.88,0.26,1.38
				c0,1.56-0.74,2.63-2.23,3.21c-0.78,0.31-1.75,0.46-2.92,0.46c-0.25,0-0.42,0-0.5-0.01c-0.08-0.01-0.19-0.01-0.35-0.01
				c-0.24,0.04-0.5,0.17-0.77,0.39c-0.28,0.23-0.42,0.5-0.42,0.82c0,0.25,0.07,0.45,0.21,0.59c0.14,0.14,0.33,0.22,0.57,0.26
				c0.12,0.02,0.38,0.03,0.78,0.04c0.4,0.01,0.71,0.02,0.93,0.02l1.62,0.03c0.92,0.02,1.69,0.15,2.32,0.4
				c1.2,0.49,1.79,1.36,1.79,2.62c0,1.63-0.9,2.75-2.69,3.36c-0.94,0.32-2.13,0.48-3.56,0.48c-1.17,0-2.18-0.11-3.03-0.34
				c-1.4-0.38-2.1-1.03-2.1-1.95C102.11,71.53,102.25,71.16,102.55,70.79z M105.13,72.94c0.55,0.29,1.34,0.44,2.39,0.44
				c0.93,0,1.69-0.07,2.29-0.22c1.13-0.28,1.7-0.79,1.7-1.53c0-0.43-0.16-0.76-0.48-0.97c-0.32-0.22-0.91-0.33-1.75-0.33h-4.1
				c-0.26,0.21-0.45,0.39-0.56,0.54c-0.2,0.27-0.3,0.56-0.3,0.86C104.3,72.24,104.58,72.64,105.13,72.94z M106,63.36
				c0.24,0.73,0.71,1.1,1.4,1.1c0.63,0,1.06-0.27,1.29-0.82c0.24-0.55,0.35-1.35,0.35-2.41c0-1.12-0.12-1.94-0.37-2.45
				c-0.25-0.51-0.67-0.77-1.28-0.77c-0.66,0-1.1,0.27-1.32,0.82c-0.22,0.55-0.33,1.35-0.33,2.4C105.76,62.18,105.84,62.89,106,63.36
				z"/>
			<path class="st8" d="M119.94,58.91c1.07-1.16,2.42-1.75,4.04-1.75c1.65,0,3,0.59,4.06,1.78c1.05,1.19,1.58,2.63,1.58,4.32
				c0,1.67-0.52,3.1-1.56,4.3c-1.04,1.2-2.4,1.8-4.08,1.8c-1.63,0-2.97-0.58-4.04-1.75s-1.6-2.62-1.6-4.35
				C118.33,61.53,118.87,60.08,119.94,58.91z M122.27,66.95c0.29,1.08,0.85,1.62,1.7,1.62c0.8,0,1.33-0.41,1.59-1.24
				c0.25-0.83,0.38-2.18,0.38-4.05c0-1.86-0.13-3.21-0.4-4.05c-0.26-0.83-0.78-1.25-1.56-1.25c-0.85,0-1.41,0.54-1.7,1.62
				c-0.19,0.72-0.28,1.95-0.28,3.67C122.01,65.02,122.1,66.25,122.27,66.95z"/>
			<path class="st8" d="M170.91,63.26h0.72c0.4,1.87,1.04,3.23,1.93,4.07c0.89,0.85,1.9,1.27,3.05,1.27c1.11,0,1.91-0.29,2.38-0.87
				c0.47-0.58,0.71-1.2,0.71-1.84c0-0.75-0.25-1.36-0.74-1.83c-0.32-0.31-0.98-0.71-1.97-1.21l-1.59-0.81
				c-1.58-0.8-2.7-1.59-3.35-2.37c-0.65-0.78-0.97-1.75-0.97-2.9c0-1.22,0.43-2.36,1.29-3.42s2.18-1.59,3.96-1.59
				c0.9,0,1.78,0.14,2.62,0.42c0.84,0.28,1.33,0.41,1.45,0.41c0.27,0,0.46-0.08,0.56-0.24c0.1-0.16,0.19-0.37,0.25-0.63h0.74v5.44
				h-0.7c-0.33-1.26-0.9-2.35-1.72-3.26c-0.82-0.91-1.82-1.37-3-1.37c-0.83,0-1.48,0.23-1.96,0.69c-0.48,0.46-0.72,1.02-0.72,1.68
				c0,0.79,0.23,1.38,0.68,1.77c0.44,0.4,1.44,0.99,2.98,1.76l1.84,0.93c0.82,0.42,1.48,0.88,1.97,1.38
				c0.91,0.94,1.37,2.09,1.37,3.44c0,1.26-0.49,2.45-1.47,3.57c-0.98,1.12-2.55,1.68-4.71,1.68c-0.5,0-1-0.05-1.51-0.14
				c-0.51-0.09-1.01-0.24-1.51-0.43l-0.48-0.18c-0.11-0.03-0.22-0.06-0.32-0.08c-0.1-0.02-0.19-0.03-0.26-0.03
				c-0.26,0-0.43,0.08-0.53,0.23c-0.1,0.15-0.18,0.36-0.25,0.64h-0.72V63.26z"/>
			<path class="st8" d="M189.94,64.08c1.08-0.66,2.78-1.32,5.09-1.99v-1.82c0-0.74-0.16-1.29-0.47-1.64
				c-0.31-0.35-0.87-0.53-1.67-0.53c-0.45,0-0.82,0.08-1.11,0.25s-0.43,0.38-0.43,0.63c0,0.1,0.02,0.18,0.05,0.24
				c0.03,0.06,0.08,0.13,0.15,0.21l0.15,0.17c0.11,0.14,0.21,0.29,0.28,0.46c0.07,0.17,0.1,0.34,0.1,0.53
				c0,0.47-0.16,0.84-0.47,1.09c-0.31,0.26-0.68,0.38-1.09,0.38c-0.48,0-0.89-0.14-1.23-0.43c-0.34-0.28-0.51-0.69-0.51-1.23
				c0-0.96,0.45-1.72,1.35-2.28c0.9-0.56,2.01-0.84,3.33-0.84c1.42,0,2.6,0.27,3.55,0.82c0.94,0.55,1.42,1.57,1.42,3.05v6.05
				c0,0.18,0.05,0.33,0.14,0.46s0.2,0.19,0.31,0.19c0.1,0,0.18-0.02,0.26-0.06c0.08-0.04,0.2-0.14,0.36-0.3l0.38,0.52
				c-0.49,0.57-1.03,0.97-1.62,1.2c-0.38,0.15-0.77,0.22-1.18,0.22c-0.74,0-1.28-0.22-1.62-0.65c-0.2-0.25-0.34-0.61-0.43-1.09
				c-0.69,0.69-1.47,1.18-2.34,1.47c-0.53,0.18-1.05,0.27-1.56,0.27c-0.68,0-1.32-0.22-1.92-0.65c-0.59-0.44-0.89-1.12-0.89-2.04
				C188.32,65.63,188.86,64.74,189.94,64.08z M194.3,67.3c0.2-0.15,0.43-0.38,0.7-0.69v-3.66c-0.67,0.16-1.25,0.42-1.76,0.77
				c-0.86,0.6-1.28,1.35-1.28,2.28c0,0.55,0.12,0.96,0.37,1.24c0.25,0.28,0.53,0.42,0.84,0.42C193.57,67.67,193.95,67.54,194.3,67.3
				z"/>
			<path class="st8" d="M204.33,68.5c0.44-0.11,0.75-0.25,0.93-0.42c0.18-0.17,0.27-0.54,0.27-1.09V54.25
				c0-0.53-0.09-0.88-0.26-1.05c-0.17-0.16-0.49-0.3-0.95-0.41v-0.6h4.74v14.78c0,0.55,0.09,0.92,0.27,1.09
				c0.18,0.17,0.5,0.31,0.95,0.43v0.6h-5.96V68.5z"/>
			<path class="st8" d="M216.88,64.08c1.08-0.66,2.78-1.32,5.09-1.99v-1.82c0-0.74-0.16-1.29-0.47-1.64
				c-0.31-0.35-0.87-0.53-1.67-0.53c-0.45,0-0.82,0.08-1.11,0.25s-0.43,0.38-0.43,0.63c0,0.1,0.02,0.18,0.05,0.24
				c0.03,0.06,0.08,0.13,0.15,0.21l0.15,0.17c0.11,0.14,0.21,0.29,0.28,0.46c0.07,0.17,0.1,0.34,0.1,0.53
				c0,0.47-0.16,0.84-0.47,1.09c-0.31,0.26-0.68,0.38-1.09,0.38c-0.48,0-0.89-0.14-1.23-0.43c-0.34-0.28-0.51-0.69-0.51-1.23
				c0-0.96,0.45-1.72,1.35-2.28c0.9-0.56,2.01-0.84,3.33-0.84c1.42,0,2.6,0.27,3.55,0.82c0.94,0.55,1.42,1.57,1.42,3.05v6.05
				c0,0.18,0.05,0.33,0.14,0.46s0.2,0.19,0.31,0.19c0.1,0,0.18-0.02,0.26-0.06c0.08-0.04,0.2-0.14,0.36-0.3l0.38,0.52
				c-0.49,0.57-1.03,0.97-1.62,1.2c-0.38,0.15-0.77,0.22-1.18,0.22c-0.74,0-1.28-0.22-1.62-0.65c-0.2-0.25-0.34-0.61-0.43-1.09
				c-0.69,0.69-1.47,1.18-2.34,1.47c-0.53,0.18-1.05,0.27-1.56,0.27c-0.68,0-1.32-0.22-1.92-0.65c-0.59-0.44-0.89-1.12-0.89-2.04
				C215.26,65.63,215.8,64.74,216.88,64.08z M221.24,67.3c0.2-0.15,0.43-0.38,0.7-0.69v-3.66c-0.67,0.16-1.25,0.42-1.76,0.77
				c-0.86,0.6-1.28,1.35-1.28,2.28c0,0.55,0.12,0.96,0.37,1.24c0.25,0.28,0.53,0.42,0.84,0.42
				C220.51,67.67,220.89,67.54,221.24,67.3z"/>
			<path class="st8" d="M231.51,65.31h0.7c0.24,1.2,0.7,2.04,1.37,2.53c0.67,0.49,1.35,0.74,2.05,0.74c0.64,0,1.12-0.14,1.42-0.43
				c0.3-0.29,0.45-0.67,0.45-1.14c0-0.45-0.16-0.83-0.49-1.15c-0.18-0.17-0.47-0.35-0.87-0.55l-1.86-0.9c-0.98-0.48-1.68-1-2.1-1.56
				c-0.43-0.56-0.65-1.22-0.65-1.99c0-0.97,0.34-1.8,1.01-2.51c0.68-0.7,1.62-1.06,2.83-1.06c0.53,0,1.09,0.09,1.69,0.26
				c0.59,0.18,0.96,0.26,1.11,0.26c0.2,0,0.35-0.04,0.43-0.13c0.08-0.09,0.16-0.21,0.21-0.36h0.55v3.61h-0.63
				c-0.24-0.85-0.62-1.53-1.16-2.04c-0.54-0.51-1.16-0.77-1.88-0.77c-0.55,0-0.97,0.15-1.24,0.46c-0.27,0.31-0.41,0.64-0.41,1
				c0,0.29,0.12,0.59,0.37,0.88c0.24,0.3,0.68,0.61,1.34,0.93l1.37,0.66c0.85,0.41,1.46,0.8,1.86,1.18
				c0.65,0.65,0.98,1.45,0.98,2.41c0,0.93-0.34,1.79-1.01,2.59c-0.67,0.8-1.68,1.2-3.02,1.2c-0.33,0-0.67-0.03-1.01-0.1
				c-0.34-0.07-0.75-0.19-1.25-0.36l-0.43-0.15c-0.15-0.06-0.25-0.09-0.29-0.1c-0.04-0.01-0.08-0.01-0.14-0.01
				c-0.14,0-0.26,0.05-0.36,0.17c-0.1,0.11-0.22,0.29-0.35,0.55h-0.6V65.31z"/>
		</g>
	</g>
	<g>
		<path class="st6" d="M64.62,67.15c0.63-0.04,1.08-0.13,1.36-0.27c0.49-0.25,0.73-0.71,0.73-1.38V53.17c0-0.64-0.23-1.09-0.7-1.34
			c-0.27-0.15-0.73-0.25-1.39-0.3v-0.63h7.64c3.08,0,5.44,0.82,7.06,2.47c1.47,1.5,2.21,3.51,2.21,6.03c0,2.26-0.74,4.18-2.22,5.75
			c-1.67,1.77-3.93,2.65-6.79,2.65h-7.9V67.15z M71.03,66.6c0.17,0.23,0.52,0.34,1.07,0.34c1.48,0,2.7-0.52,3.65-1.57
			c0.95-1.04,1.43-3.05,1.43-6.02c0-1.77-0.26-3.28-0.77-4.55c-0.83-2.04-2.23-3.06-4.2-3.06c-0.65,0-1.07,0.14-1.27,0.42
			c-0.13,0.18-0.2,0.52-0.2,1.04v12.3C70.77,66,70.87,66.37,71.03,66.6z"/>
		<path class="st6" d="M83.98,67.19c0.44-0.07,0.74-0.18,0.9-0.33c0.24-0.22,0.37-0.61,0.37-1.18v-7.35c0-0.51-0.08-0.86-0.26-1.04
			s-0.51-0.32-1.01-0.41v-0.6h4.8v9.5c0,0.54,0.08,0.89,0.24,1.05c0.16,0.16,0.47,0.28,0.92,0.37v0.6h-5.96V67.19z M85.65,51.08
			c0.38-0.38,0.84-0.57,1.37-0.57c0.53,0,0.98,0.19,1.36,0.57c0.38,0.38,0.57,0.84,0.57,1.37s-0.19,1-0.57,1.37
			c-0.38,0.38-0.83,0.57-1.36,0.57c-0.54,0-1-0.19-1.37-0.57c-0.38-0.38-0.57-0.84-0.57-1.37S85.27,51.46,85.65,51.08z"/>
		<path class="st6" d="M93.86,57.58c1.02-1.06,2.25-1.59,3.7-1.59c0.82,0,1.6,0.22,2.32,0.65s1.28,1.03,1.67,1.79
			c0.29,0.58,0.5,1.33,0.61,2.25c0.06,0.43,0.09,0.76,0.09,0.99h-6.38c0.06,1,0.22,1.87,0.49,2.6c0.49,1.38,1.35,2.06,2.58,2.06
			c0.59,0,1.14-0.18,1.66-0.55c0.32-0.22,0.71-0.59,1.19-1.11l0.57,0.35c-0.77,1.27-1.67,2.15-2.69,2.65
			c-0.66,0.32-1.42,0.48-2.27,0.48c-1.23,0-2.38-0.48-3.46-1.45c-1.08-0.97-1.61-2.51-1.61-4.64
			C92.32,60.13,92.84,58.64,93.86,57.58z M99.17,60.73c-0.02-1.47-0.13-2.5-0.34-3.09c-0.21-0.59-0.64-0.88-1.27-0.88
			c-0.65,0-1.1,0.34-1.34,1.01s-0.38,1.66-0.41,2.95H99.17z"/>
		<path class="st6" d="M105.14,69.57c0.3-0.38,0.81-0.62,1.54-0.74v-0.17c-0.49-0.19-0.84-0.38-1.06-0.57
			c-0.39-0.35-0.59-0.82-0.59-1.4c0-0.7,0.31-1.3,0.92-1.79c0.61-0.5,1.21-0.84,1.8-1.04v-0.17c-0.85-0.34-1.53-0.83-2.05-1.46
			s-0.78-1.4-0.78-2.31c0-1.14,0.46-2.08,1.37-2.82s2.14-1.11,3.7-1.11c0.59,0,1.12,0.06,1.61,0.17c0.49,0.11,0.87,0.23,1.14,0.35
			h3.3v1.33h-2.03c0.33,0.32,0.58,0.69,0.75,1.11c0.17,0.42,0.26,0.88,0.26,1.38c0,1.56-0.74,2.63-2.23,3.21
			c-0.78,0.31-1.75,0.46-2.92,0.46c-0.25,0-0.42,0-0.5-0.01c-0.08-0.01-0.19-0.01-0.35-0.01c-0.24,0.04-0.5,0.17-0.77,0.39
			c-0.28,0.23-0.42,0.5-0.42,0.82c0,0.25,0.07,0.45,0.21,0.59c0.14,0.14,0.33,0.22,0.57,0.26c0.12,0.02,0.38,0.03,0.78,0.04
			c0.4,0.01,0.71,0.02,0.93,0.02l1.62,0.03c0.92,0.02,1.69,0.15,2.32,0.4c1.2,0.49,1.79,1.36,1.79,2.62c0,1.63-0.9,2.75-2.69,3.36
			c-0.94,0.32-2.13,0.48-3.56,0.48c-1.17,0-2.18-0.11-3.03-0.34c-1.4-0.38-2.1-1.03-2.1-1.95
			C104.69,70.32,104.84,69.95,105.14,69.57z M107.72,71.73c0.55,0.29,1.34,0.44,2.39,0.44c0.93,0,1.69-0.07,2.29-0.22
			c1.13-0.28,1.7-0.79,1.7-1.53c0-0.43-0.16-0.76-0.48-0.97c-0.32-0.22-0.91-0.33-1.75-0.33h-4.1c-0.26,0.21-0.45,0.39-0.56,0.54
			c-0.2,0.27-0.3,0.56-0.3,0.86C106.89,71.03,107.17,71.43,107.72,71.73z M108.59,62.15c0.24,0.73,0.71,1.1,1.4,1.1
			c0.63,0,1.06-0.27,1.29-0.82c0.24-0.55,0.35-1.35,0.35-2.41c0-1.12-0.12-1.94-0.37-2.45c-0.25-0.51-0.67-0.77-1.28-0.77
			c-0.66,0-1.1,0.27-1.32,0.82c-0.22,0.55-0.33,1.35-0.33,2.4C108.34,60.97,108.43,61.68,108.59,62.15z"/>
		<path class="st6" d="M120.03,57.7c1.07-1.16,2.42-1.75,4.04-1.75c1.65,0,3,0.59,4.06,1.78c1.05,1.19,1.58,2.63,1.58,4.32
			c0,1.67-0.52,3.1-1.56,4.3c-1.04,1.2-2.4,1.8-4.08,1.8c-1.63,0-2.97-0.58-4.04-1.75s-1.6-2.62-1.6-4.35
			C118.42,60.32,118.95,58.87,120.03,57.7z M122.36,65.74c0.29,1.08,0.85,1.62,1.7,1.62c0.8,0,1.33-0.41,1.59-1.24
			c0.25-0.83,0.38-2.18,0.38-4.05c0-1.86-0.13-3.21-0.4-4.05c-0.26-0.83-0.78-1.25-1.56-1.25c-0.85,0-1.41,0.54-1.7,1.62
			c-0.19,0.72-0.28,1.95-0.28,3.67C122.09,63.81,122.18,65.04,122.36,65.74z"/>
		<path class="st6" d="M175.23,61.95h0.72c0.4,1.87,1.04,3.23,1.93,4.07c0.89,0.85,1.9,1.27,3.05,1.27c1.11,0,1.91-0.29,2.38-0.87
			c0.47-0.58,0.71-1.2,0.71-1.84c0-0.75-0.25-1.36-0.74-1.83c-0.32-0.31-0.98-0.71-1.97-1.21l-1.59-0.81
			c-1.58-0.8-2.7-1.59-3.35-2.37c-0.65-0.78-0.97-1.75-0.97-2.9c0-1.22,0.43-2.36,1.29-3.42s2.18-1.59,3.96-1.59
			c0.9,0,1.78,0.14,2.62,0.42c0.84,0.28,1.33,0.41,1.45,0.41c0.27,0,0.46-0.08,0.56-0.24c0.1-0.16,0.19-0.37,0.25-0.63h0.74v5.44
			h-0.7c-0.33-1.26-0.9-2.35-1.72-3.26c-0.82-0.91-1.82-1.37-3-1.37c-0.83,0-1.48,0.23-1.96,0.69c-0.48,0.46-0.72,1.02-0.72,1.68
			c0,0.79,0.23,1.38,0.68,1.77c0.44,0.4,1.44,0.99,2.98,1.76l1.84,0.93c0.82,0.42,1.48,0.88,1.97,1.38
			c0.91,0.94,1.37,2.09,1.37,3.44c0,1.26-0.49,2.45-1.47,3.57c-0.98,1.12-2.55,1.68-4.71,1.68c-0.5,0-1-0.05-1.51-0.14
			c-0.51-0.09-1.01-0.24-1.51-0.43l-0.48-0.18c-0.11-0.03-0.22-0.06-0.32-0.08c-0.1-0.02-0.19-0.03-0.26-0.03
			c-0.26,0-0.43,0.08-0.53,0.23c-0.1,0.15-0.18,0.36-0.25,0.64h-0.72V61.95z"/>
		<path class="st6" d="M191.76,62.77c1.08-0.66,2.78-1.32,5.09-1.99v-1.82c0-0.74-0.16-1.29-0.47-1.64
			c-0.31-0.35-0.87-0.53-1.67-0.53c-0.45,0-0.82,0.08-1.11,0.25s-0.43,0.38-0.43,0.63c0,0.1,0.02,0.18,0.05,0.24
			c0.03,0.06,0.08,0.13,0.15,0.21l0.15,0.17c0.11,0.14,0.21,0.29,0.28,0.46c0.07,0.17,0.1,0.34,0.1,0.53c0,0.47-0.16,0.84-0.47,1.09
			c-0.31,0.26-0.68,0.38-1.09,0.38c-0.48,0-0.89-0.14-1.23-0.43c-0.34-0.28-0.51-0.69-0.51-1.23c0-0.96,0.45-1.72,1.35-2.28
			c0.9-0.56,2.01-0.84,3.33-0.84c1.42,0,2.6,0.27,3.55,0.82c0.94,0.55,1.42,1.57,1.42,3.05v6.05c0,0.18,0.05,0.33,0.14,0.46
			s0.2,0.19,0.31,0.19c0.1,0,0.18-0.02,0.26-0.06c0.08-0.04,0.2-0.14,0.36-0.3l0.38,0.52c-0.49,0.57-1.03,0.97-1.62,1.2
			c-0.38,0.15-0.77,0.22-1.18,0.22c-0.74,0-1.28-0.22-1.62-0.65c-0.2-0.25-0.34-0.61-0.43-1.09c-0.69,0.69-1.47,1.18-2.34,1.47
			c-0.53,0.18-1.05,0.27-1.56,0.27c-0.68,0-1.32-0.22-1.92-0.65c-0.59-0.44-0.89-1.12-0.89-2.04
			C190.14,64.33,190.68,63.43,191.76,62.77z M196.12,65.99c0.2-0.15,0.43-0.38,0.7-0.69v-3.66c-0.67,0.16-1.25,0.42-1.76,0.77
			c-0.86,0.6-1.28,1.35-1.28,2.28c0,0.55,0.12,0.96,0.37,1.24c0.25,0.28,0.53,0.42,0.84,0.42
			C195.39,66.36,195.77,66.24,196.12,65.99z"/>
		<path class="st6" d="M203.65,67.19c0.44-0.11,0.75-0.25,0.93-0.42c0.18-0.17,0.27-0.54,0.27-1.09V52.94
			c0-0.53-0.09-0.88-0.26-1.05c-0.17-0.16-0.49-0.3-0.95-0.41v-0.6h4.74v14.78c0,0.55,0.09,0.92,0.27,1.09
			c0.18,0.17,0.5,0.31,0.95,0.43v0.6h-5.96V67.19z"/>
		<path class="st6" d="M213.7,62.77c1.08-0.66,2.78-1.32,5.09-1.99v-1.82c0-0.74-0.16-1.29-0.47-1.64
			c-0.31-0.35-0.87-0.53-1.67-0.53c-0.45,0-0.82,0.08-1.11,0.25s-0.43,0.38-0.43,0.63c0,0.1,0.02,0.18,0.05,0.24
			c0.03,0.06,0.08,0.13,0.15,0.21l0.15,0.17c0.11,0.14,0.21,0.29,0.28,0.46c0.07,0.17,0.1,0.34,0.1,0.53c0,0.47-0.16,0.84-0.47,1.09
			c-0.31,0.26-0.68,0.38-1.09,0.38c-0.48,0-0.89-0.14-1.23-0.43c-0.34-0.28-0.51-0.69-0.51-1.23c0-0.96,0.45-1.72,1.35-2.28
			c0.9-0.56,2.01-0.84,3.33-0.84c1.42,0,2.6,0.27,3.55,0.82c0.94,0.55,1.42,1.57,1.42,3.05v6.05c0,0.18,0.05,0.33,0.14,0.46
			s0.2,0.19,0.31,0.19c0.1,0,0.18-0.02,0.26-0.06c0.08-0.04,0.2-0.14,0.36-0.3l0.38,0.52c-0.49,0.57-1.03,0.97-1.62,1.2
			c-0.38,0.15-0.77,0.22-1.18,0.22c-0.74,0-1.28-0.22-1.62-0.65c-0.2-0.25-0.34-0.61-0.43-1.09c-0.69,0.69-1.47,1.18-2.34,1.47
			c-0.53,0.18-1.05,0.27-1.56,0.27c-0.68,0-1.32-0.22-1.92-0.65c-0.59-0.44-0.89-1.12-0.89-2.04
			C212.08,64.33,212.62,63.43,213.7,62.77z M218.06,65.99c0.2-0.15,0.43-0.38,0.7-0.69v-3.66c-0.67,0.16-1.25,0.42-1.76,0.77
			c-0.86,0.6-1.28,1.35-1.28,2.28c0,0.55,0.12,0.96,0.37,1.24c0.25,0.28,0.53,0.42,0.84,0.42
			C217.33,66.36,217.71,66.24,218.06,65.99z"/>
		<path class="st6" d="M225.83,64h0.7c0.24,1.2,0.7,2.04,1.37,2.53c0.67,0.49,1.35,0.74,2.05,0.74c0.64,0,1.12-0.14,1.42-0.43
			c0.3-0.29,0.45-0.67,0.45-1.14c0-0.45-0.16-0.83-0.49-1.15c-0.18-0.17-0.47-0.35-0.87-0.55l-1.86-0.9c-0.98-0.48-1.68-1-2.1-1.56
			c-0.43-0.56-0.65-1.22-0.65-1.99c0-0.97,0.34-1.8,1.01-2.51c0.68-0.7,1.62-1.06,2.83-1.06c0.53,0,1.09,0.09,1.69,0.26
			c0.59,0.18,0.96,0.26,1.11,0.26c0.2,0,0.35-0.04,0.43-0.13c0.08-0.09,0.16-0.21,0.21-0.36h0.55v3.61h-0.63
			c-0.24-0.85-0.62-1.53-1.16-2.04c-0.54-0.51-1.16-0.77-1.88-0.77c-0.55,0-0.97,0.15-1.24,0.46c-0.27,0.31-0.41,0.64-0.41,1
			c0,0.29,0.12,0.59,0.37,0.88c0.24,0.3,0.68,0.61,1.34,0.93l1.37,0.66c0.85,0.41,1.46,0.8,1.86,1.18c0.65,0.65,0.98,1.45,0.98,2.41
			c0,0.93-0.34,1.79-1.01,2.59c-0.67,0.8-1.68,1.2-3.02,1.2c-0.33,0-0.67-0.03-1.01-0.1c-0.34-0.07-0.75-0.19-1.25-0.36l-0.43-0.15
			c-0.15-0.06-0.25-0.09-0.29-0.1c-0.04-0.01-0.08-0.01-0.14-0.01c-0.14,0-0.26,0.05-0.36,0.17c-0.1,0.11-0.22,0.29-0.35,0.55h-0.6
			V64z"/>
	</g>
</g>
</svg>
